<mxfile host="app.diagrams.net" modified="2023-09-29T17:42:33.580Z" agent="Mozilla/5.0 (Windows NT 10.0; Win64; x64) AppleWebKit/537.36 (KHTML, like Gecko) Chrome/117.0.0.0 Safari/537.36" etag="7zSmCUMaOrdH9H3SLu-l" version="22.0.0" type="google">
  <diagram name="Страница — 1" id="VRicChxPhD_UCcBNBDPx">
    <mxGraphModel grid="1" page="1" gridSize="10" guides="1" tooltips="1" connect="1" arrows="1" fold="1" pageScale="1" pageWidth="827" pageHeight="1169" math="0" shadow="0">
      <root>
        <mxCell id="0" />
        <mxCell id="1" parent="0" />
        <mxCell id="WZVzZGF7R0zL9x7gL25s-18" value="" style="edgeStyle=orthogonalEdgeStyle;rounded=0;orthogonalLoop=1;jettySize=auto;html=1;labelBackgroundColor=none;strokeColor=#A8201A;fontColor=default;" edge="1" parent="1" source="WZVzZGF7R0zL9x7gL25s-1" target="WZVzZGF7R0zL9x7gL25s-17">
          <mxGeometry relative="1" as="geometry" />
        </mxCell>
        <mxCell id="WZVzZGF7R0zL9x7gL25s-45" value="" style="edgeStyle=orthogonalEdgeStyle;rounded=0;orthogonalLoop=1;jettySize=auto;html=1;labelBackgroundColor=none;strokeColor=#A8201A;fontColor=default;" edge="1" parent="1" source="WZVzZGF7R0zL9x7gL25s-1" target="WZVzZGF7R0zL9x7gL25s-44">
          <mxGeometry relative="1" as="geometry" />
        </mxCell>
        <mxCell id="WZVzZGF7R0zL9x7gL25s-47" value="" style="edgeStyle=orthogonalEdgeStyle;rounded=0;orthogonalLoop=1;jettySize=auto;html=1;labelBackgroundColor=none;strokeColor=#A8201A;fontColor=default;" edge="1" parent="1" source="WZVzZGF7R0zL9x7gL25s-1" target="WZVzZGF7R0zL9x7gL25s-46">
          <mxGeometry relative="1" as="geometry">
            <Array as="points">
              <mxPoint x="830" y="100" />
            </Array>
          </mxGeometry>
        </mxCell>
        <mxCell id="WZVzZGF7R0zL9x7gL25s-49" value="" style="edgeStyle=orthogonalEdgeStyle;rounded=0;orthogonalLoop=1;jettySize=auto;html=1;labelBackgroundColor=none;strokeColor=#A8201A;fontColor=default;" edge="1" parent="1" source="WZVzZGF7R0zL9x7gL25s-1" target="WZVzZGF7R0zL9x7gL25s-48">
          <mxGeometry relative="1" as="geometry">
            <Array as="points">
              <mxPoint x="830" y="100" />
              <mxPoint x="830" y="310" />
            </Array>
          </mxGeometry>
        </mxCell>
        <mxCell id="WZVzZGF7R0zL9x7gL25s-52" value="" style="edgeStyle=orthogonalEdgeStyle;rounded=0;orthogonalLoop=1;jettySize=auto;html=1;labelBackgroundColor=none;strokeColor=#A8201A;fontColor=default;" edge="1" parent="1" source="WZVzZGF7R0zL9x7gL25s-1" target="WZVzZGF7R0zL9x7gL25s-51">
          <mxGeometry relative="1" as="geometry">
            <Array as="points">
              <mxPoint x="830" y="100" />
              <mxPoint x="830" y="385" />
            </Array>
          </mxGeometry>
        </mxCell>
        <mxCell id="WZVzZGF7R0zL9x7gL25s-1" value="Преподаватель" style="shape=umlActor;verticalLabelPosition=bottom;verticalAlign=top;html=1;outlineConnect=0;labelBackgroundColor=none;fillColor=#FAE5C7;strokeColor=#0F8B8D;fontColor=#143642;" vertex="1" parent="1">
          <mxGeometry x="930" y="70" width="30" height="60" as="geometry" />
        </mxCell>
        <mxCell id="WZVzZGF7R0zL9x7gL25s-55" style="edgeStyle=orthogonalEdgeStyle;rounded=0;orthogonalLoop=1;jettySize=auto;html=1;exitX=0.5;exitY=0.5;exitDx=0;exitDy=0;exitPerimeter=0;entryX=1;entryY=0.5;entryDx=0;entryDy=0;labelBackgroundColor=none;strokeColor=#A8201A;fontColor=default;" edge="1" parent="1" source="WZVzZGF7R0zL9x7gL25s-2" target="WZVzZGF7R0zL9x7gL25s-53">
          <mxGeometry relative="1" as="geometry">
            <Array as="points">
              <mxPoint x="910" y="530" />
              <mxPoint x="910" y="510" />
            </Array>
          </mxGeometry>
        </mxCell>
        <mxCell id="WZVzZGF7R0zL9x7gL25s-56" style="edgeStyle=orthogonalEdgeStyle;rounded=0;orthogonalLoop=1;jettySize=auto;html=1;exitX=0.5;exitY=0.5;exitDx=0;exitDy=0;exitPerimeter=0;entryX=1;entryY=0.5;entryDx=0;entryDy=0;labelBackgroundColor=none;strokeColor=#A8201A;fontColor=default;" edge="1" parent="1" source="WZVzZGF7R0zL9x7gL25s-2" target="WZVzZGF7R0zL9x7gL25s-15">
          <mxGeometry relative="1" as="geometry">
            <Array as="points">
              <mxPoint x="910" y="530" />
              <mxPoint x="910" y="445" />
            </Array>
          </mxGeometry>
        </mxCell>
        <mxCell id="WZVzZGF7R0zL9x7gL25s-58" value="" style="edgeStyle=orthogonalEdgeStyle;rounded=0;orthogonalLoop=1;jettySize=auto;html=1;labelBackgroundColor=none;strokeColor=#A8201A;fontColor=default;" edge="1" parent="1" source="WZVzZGF7R0zL9x7gL25s-2" target="WZVzZGF7R0zL9x7gL25s-57">
          <mxGeometry relative="1" as="geometry">
            <Array as="points">
              <mxPoint x="910" y="530" />
              <mxPoint x="910" y="580" />
            </Array>
          </mxGeometry>
        </mxCell>
        <mxCell id="WZVzZGF7R0zL9x7gL25s-60" value="" style="edgeStyle=orthogonalEdgeStyle;rounded=0;orthogonalLoop=1;jettySize=auto;html=1;labelBackgroundColor=none;strokeColor=#A8201A;fontColor=default;" edge="1" parent="1" source="WZVzZGF7R0zL9x7gL25s-2" target="WZVzZGF7R0zL9x7gL25s-59">
          <mxGeometry relative="1" as="geometry">
            <Array as="points">
              <mxPoint x="910" y="530" />
              <mxPoint x="910" y="650" />
            </Array>
          </mxGeometry>
        </mxCell>
        <mxCell id="WZVzZGF7R0zL9x7gL25s-62" value="" style="edgeStyle=orthogonalEdgeStyle;rounded=0;orthogonalLoop=1;jettySize=auto;html=1;labelBackgroundColor=none;strokeColor=#A8201A;fontColor=default;" edge="1" parent="1" source="WZVzZGF7R0zL9x7gL25s-2" target="WZVzZGF7R0zL9x7gL25s-61">
          <mxGeometry relative="1" as="geometry">
            <Array as="points">
              <mxPoint x="910" y="530" />
              <mxPoint x="910" y="695" />
            </Array>
          </mxGeometry>
        </mxCell>
        <mxCell id="WZVzZGF7R0zL9x7gL25s-66" value="" style="edgeStyle=orthogonalEdgeStyle;rounded=0;orthogonalLoop=1;jettySize=auto;html=1;labelBackgroundColor=none;strokeColor=#A8201A;fontColor=default;" edge="1" parent="1" source="WZVzZGF7R0zL9x7gL25s-2" target="WZVzZGF7R0zL9x7gL25s-65">
          <mxGeometry relative="1" as="geometry">
            <Array as="points">
              <mxPoint x="910" y="530" />
              <mxPoint x="910" y="760" />
            </Array>
          </mxGeometry>
        </mxCell>
        <mxCell id="WZVzZGF7R0zL9x7gL25s-2" value="Администратор" style="shape=umlActor;verticalLabelPosition=bottom;verticalAlign=top;html=1;outlineConnect=0;labelBackgroundColor=none;fillColor=#FAE5C7;strokeColor=#0F8B8D;fontColor=#143642;" vertex="1" parent="1">
          <mxGeometry x="950" y="500" width="30" height="60" as="geometry" />
        </mxCell>
        <mxCell id="WZVzZGF7R0zL9x7gL25s-14" value="" style="edgeStyle=orthogonalEdgeStyle;rounded=0;orthogonalLoop=1;jettySize=auto;html=1;labelBackgroundColor=none;strokeColor=#A8201A;fontColor=default;" edge="1" parent="1" source="WZVzZGF7R0zL9x7gL25s-3" target="WZVzZGF7R0zL9x7gL25s-13">
          <mxGeometry relative="1" as="geometry">
            <Array as="points">
              <mxPoint x="120" y="280" />
              <mxPoint x="120" y="80" />
            </Array>
          </mxGeometry>
        </mxCell>
        <mxCell id="WZVzZGF7R0zL9x7gL25s-20" value="" style="edgeStyle=orthogonalEdgeStyle;rounded=0;orthogonalLoop=1;jettySize=auto;html=1;labelBackgroundColor=none;strokeColor=#A8201A;fontColor=default;" edge="1" parent="1" source="WZVzZGF7R0zL9x7gL25s-3" target="WZVzZGF7R0zL9x7gL25s-19">
          <mxGeometry relative="1" as="geometry">
            <Array as="points">
              <mxPoint x="120" y="280" />
              <mxPoint x="120" y="130" />
            </Array>
          </mxGeometry>
        </mxCell>
        <mxCell id="WZVzZGF7R0zL9x7gL25s-25" value="" style="edgeStyle=orthogonalEdgeStyle;rounded=0;orthogonalLoop=1;jettySize=auto;html=1;labelBackgroundColor=none;strokeColor=#A8201A;fontColor=default;" edge="1" parent="1" source="WZVzZGF7R0zL9x7gL25s-3" target="WZVzZGF7R0zL9x7gL25s-24">
          <mxGeometry relative="1" as="geometry">
            <Array as="points">
              <mxPoint x="120" y="280" />
              <mxPoint x="120" y="200" />
            </Array>
          </mxGeometry>
        </mxCell>
        <mxCell id="WZVzZGF7R0zL9x7gL25s-27" value="" style="edgeStyle=orthogonalEdgeStyle;rounded=0;orthogonalLoop=1;jettySize=auto;html=1;entryX=0;entryY=0.5;entryDx=0;entryDy=0;labelBackgroundColor=none;strokeColor=#A8201A;fontColor=default;" edge="1" parent="1" target="WZVzZGF7R0zL9x7gL25s-26">
          <mxGeometry relative="1" as="geometry">
            <mxPoint x="120" y="280" as="sourcePoint" />
            <mxPoint x="255" y="350" as="targetPoint" />
            <Array as="points">
              <mxPoint x="120" y="285" />
            </Array>
          </mxGeometry>
        </mxCell>
        <mxCell id="WZVzZGF7R0zL9x7gL25s-29" value="" style="edgeStyle=orthogonalEdgeStyle;rounded=0;orthogonalLoop=1;jettySize=auto;html=1;labelBackgroundColor=none;strokeColor=#A8201A;fontColor=default;" edge="1" parent="1" source="WZVzZGF7R0zL9x7gL25s-3" target="WZVzZGF7R0zL9x7gL25s-28">
          <mxGeometry relative="1" as="geometry">
            <Array as="points">
              <mxPoint x="120" y="280" />
              <mxPoint x="120" y="360" />
            </Array>
          </mxGeometry>
        </mxCell>
        <mxCell id="WZVzZGF7R0zL9x7gL25s-31" value="" style="edgeStyle=orthogonalEdgeStyle;rounded=0;orthogonalLoop=1;jettySize=auto;html=1;labelBackgroundColor=none;strokeColor=#A8201A;fontColor=default;" edge="1" parent="1" source="WZVzZGF7R0zL9x7gL25s-3" target="WZVzZGF7R0zL9x7gL25s-30">
          <mxGeometry relative="1" as="geometry">
            <Array as="points">
              <mxPoint x="120" y="280" />
              <mxPoint x="120" y="420" />
            </Array>
          </mxGeometry>
        </mxCell>
        <mxCell id="WZVzZGF7R0zL9x7gL25s-33" value="" style="edgeStyle=orthogonalEdgeStyle;rounded=0;orthogonalLoop=1;jettySize=auto;html=1;labelBackgroundColor=none;strokeColor=#A8201A;fontColor=default;" edge="1" parent="1" source="WZVzZGF7R0zL9x7gL25s-3" target="WZVzZGF7R0zL9x7gL25s-32">
          <mxGeometry relative="1" as="geometry">
            <Array as="points">
              <mxPoint x="120" y="280" />
              <mxPoint x="120" y="490" />
            </Array>
          </mxGeometry>
        </mxCell>
        <mxCell id="WZVzZGF7R0zL9x7gL25s-35" value="" style="edgeStyle=orthogonalEdgeStyle;rounded=0;orthogonalLoop=1;jettySize=auto;html=1;labelBackgroundColor=none;strokeColor=#A8201A;fontColor=default;" edge="1" parent="1" source="WZVzZGF7R0zL9x7gL25s-3" target="WZVzZGF7R0zL9x7gL25s-34">
          <mxGeometry relative="1" as="geometry">
            <Array as="points">
              <mxPoint x="120" y="280" />
              <mxPoint x="120" y="550" />
            </Array>
          </mxGeometry>
        </mxCell>
        <mxCell id="WZVzZGF7R0zL9x7gL25s-37" value="" style="edgeStyle=orthogonalEdgeStyle;rounded=0;orthogonalLoop=1;jettySize=auto;html=1;labelBackgroundColor=none;strokeColor=#A8201A;fontColor=default;" edge="1" parent="1" source="WZVzZGF7R0zL9x7gL25s-3" target="WZVzZGF7R0zL9x7gL25s-36">
          <mxGeometry relative="1" as="geometry">
            <Array as="points">
              <mxPoint x="120" y="280" />
              <mxPoint x="120" y="605" />
            </Array>
          </mxGeometry>
        </mxCell>
        <mxCell id="WZVzZGF7R0zL9x7gL25s-39" value="" style="edgeStyle=orthogonalEdgeStyle;rounded=0;orthogonalLoop=1;jettySize=auto;html=1;labelBackgroundColor=none;strokeColor=#A8201A;fontColor=default;" edge="1" parent="1" source="WZVzZGF7R0zL9x7gL25s-3" target="WZVzZGF7R0zL9x7gL25s-38">
          <mxGeometry relative="1" as="geometry">
            <Array as="points">
              <mxPoint x="120" y="280" />
              <mxPoint x="120" y="670" />
            </Array>
          </mxGeometry>
        </mxCell>
        <mxCell id="WZVzZGF7R0zL9x7gL25s-64" value="" style="edgeStyle=orthogonalEdgeStyle;rounded=0;orthogonalLoop=1;jettySize=auto;html=1;labelBackgroundColor=none;strokeColor=#A8201A;fontColor=default;" edge="1" parent="1" source="WZVzZGF7R0zL9x7gL25s-3" target="WZVzZGF7R0zL9x7gL25s-63">
          <mxGeometry relative="1" as="geometry">
            <Array as="points">
              <mxPoint x="120" y="280" />
              <mxPoint x="120" y="750" />
            </Array>
          </mxGeometry>
        </mxCell>
        <mxCell id="WZVzZGF7R0zL9x7gL25s-3" value="Клиент" style="shape=umlActor;verticalLabelPosition=bottom;verticalAlign=top;html=1;outlineConnect=0;labelBackgroundColor=none;fillColor=#FAE5C7;strokeColor=#0F8B8D;fontColor=#143642;" vertex="1" parent="1">
          <mxGeometry x="80" y="250" width="30" height="60" as="geometry" />
        </mxCell>
        <mxCell id="WZVzZGF7R0zL9x7gL25s-12" value="Система" style="swimlane;whiteSpace=wrap;html=1;fillColor=#FAE5C7;strokeColor=#0F8B8D;labelBackgroundColor=none;fontColor=#143642;" vertex="1" parent="1">
          <mxGeometry x="210" y="20" width="685" height="800" as="geometry" />
        </mxCell>
        <mxCell id="WZVzZGF7R0zL9x7gL25s-13" value="Управление данными профиля клиента" style="ellipse;whiteSpace=wrap;html=1;verticalAlign=top;labelBackgroundColor=none;fillColor=#FAE5C7;strokeColor=#0F8B8D;fontColor=#143642;" vertex="1" parent="WZVzZGF7R0zL9x7gL25s-12">
          <mxGeometry x="34" y="40" width="170" height="40" as="geometry" />
        </mxCell>
        <mxCell id="WZVzZGF7R0zL9x7gL25s-15" value="Управление данными профиля администратора" style="ellipse;whiteSpace=wrap;html=1;verticalAlign=top;labelBackgroundColor=none;fillColor=#FAE5C7;strokeColor=#0F8B8D;fontColor=#143642;" vertex="1" parent="WZVzZGF7R0zL9x7gL25s-12">
          <mxGeometry x="362.5" y="400" width="170" height="50" as="geometry" />
        </mxCell>
        <mxCell id="WZVzZGF7R0zL9x7gL25s-17" value="Управление данными профиля преподавателя" style="ellipse;whiteSpace=wrap;html=1;verticalAlign=top;labelBackgroundColor=none;fillColor=#FAE5C7;strokeColor=#0F8B8D;fontColor=#143642;" vertex="1" parent="WZVzZGF7R0zL9x7gL25s-12">
          <mxGeometry x="360" y="60" width="175" height="40" as="geometry" />
        </mxCell>
        <mxCell id="WZVzZGF7R0zL9x7gL25s-19" value="Поиск и выбор курсов по интересам" style="ellipse;whiteSpace=wrap;html=1;verticalAlign=top;labelBackgroundColor=none;fillColor=#FAE5C7;strokeColor=#0F8B8D;fontColor=#143642;" vertex="1" parent="WZVzZGF7R0zL9x7gL25s-12">
          <mxGeometry x="100" y="90" width="170" height="40" as="geometry" />
        </mxCell>
        <mxCell id="WZVzZGF7R0zL9x7gL25s-24" value="Просмотр информации о курсах" style="ellipse;whiteSpace=wrap;html=1;verticalAlign=top;labelBackgroundColor=none;fillColor=#FAE5C7;strokeColor=#0F8B8D;fontColor=#143642;" vertex="1" parent="WZVzZGF7R0zL9x7gL25s-12">
          <mxGeometry x="100" y="160" width="170" height="40" as="geometry" />
        </mxCell>
        <mxCell id="WZVzZGF7R0zL9x7gL25s-26" value="Запись на курсы" style="ellipse;whiteSpace=wrap;html=1;verticalAlign=top;labelBackgroundColor=none;fillColor=#FAE5C7;strokeColor=#0F8B8D;fontColor=#143642;" vertex="1" parent="WZVzZGF7R0zL9x7gL25s-12">
          <mxGeometry x="120" y="250" width="130" height="30" as="geometry" />
        </mxCell>
        <mxCell id="WZVzZGF7R0zL9x7gL25s-28" value="Участие в уроках" style="ellipse;whiteSpace=wrap;html=1;verticalAlign=top;labelBackgroundColor=none;fillColor=#FAE5C7;strokeColor=#0F8B8D;fontColor=#143642;" vertex="1" parent="WZVzZGF7R0zL9x7gL25s-12">
          <mxGeometry x="117.5" y="320" width="135" height="30" as="geometry" />
        </mxCell>
        <mxCell id="WZVzZGF7R0zL9x7gL25s-30" value="Выполнение заданий на платформе" style="ellipse;whiteSpace=wrap;html=1;verticalAlign=top;labelBackgroundColor=none;fillColor=#FAE5C7;strokeColor=#0F8B8D;fontColor=#143642;" vertex="1" parent="WZVzZGF7R0zL9x7gL25s-12">
          <mxGeometry x="100" y="380" width="170" height="40" as="geometry" />
        </mxCell>
        <mxCell id="WZVzZGF7R0zL9x7gL25s-32" value="Предоставление результатов выполненных вне платформы заданий&amp;nbsp;" style="ellipse;whiteSpace=wrap;html=1;verticalAlign=top;labelBackgroundColor=none;fillColor=#FAE5C7;strokeColor=#0F8B8D;fontColor=#143642;" vertex="1" parent="WZVzZGF7R0zL9x7gL25s-12">
          <mxGeometry x="100" y="450" width="210" height="50" as="geometry" />
        </mxCell>
        <mxCell id="WZVzZGF7R0zL9x7gL25s-34" value="Просмотр прогресса обучения" style="ellipse;whiteSpace=wrap;html=1;verticalAlign=top;labelBackgroundColor=none;fillColor=#FAE5C7;strokeColor=#0F8B8D;fontColor=#143642;" vertex="1" parent="WZVzZGF7R0zL9x7gL25s-12">
          <mxGeometry x="85" y="520" width="220" height="30" as="geometry" />
        </mxCell>
        <mxCell id="WZVzZGF7R0zL9x7gL25s-36" value="Общение с преподавателем: в чате, комментариях к урокам" style="ellipse;whiteSpace=wrap;html=1;verticalAlign=top;labelBackgroundColor=none;fillColor=#FAE5C7;strokeColor=#0F8B8D;fontColor=#143642;" vertex="1" parent="WZVzZGF7R0zL9x7gL25s-12">
          <mxGeometry x="67.5" y="565" width="250" height="40" as="geometry" />
        </mxCell>
        <mxCell id="WZVzZGF7R0zL9x7gL25s-38" value="Общение с администратором: в чате, на форуме тех поддержки" style="ellipse;whiteSpace=wrap;html=1;verticalAlign=top;labelBackgroundColor=none;fillColor=#FAE5C7;strokeColor=#0F8B8D;fontColor=#143642;" vertex="1" parent="WZVzZGF7R0zL9x7gL25s-12">
          <mxGeometry x="90" y="630" width="210" height="40" as="geometry" />
        </mxCell>
        <mxCell id="WZVzZGF7R0zL9x7gL25s-44" value="Создание и редактирование учебных курсов" style="ellipse;whiteSpace=wrap;html=1;verticalAlign=top;labelBackgroundColor=none;fillColor=#FAE5C7;strokeColor=#0F8B8D;fontColor=#143642;" vertex="1" parent="WZVzZGF7R0zL9x7gL25s-12">
          <mxGeometry x="373.75" y="110" width="147.5" height="60" as="geometry" />
        </mxCell>
        <mxCell id="WZVzZGF7R0zL9x7gL25s-46" value="Взаимодействие с клиентами: в чате, в комментариях к урокам" style="ellipse;whiteSpace=wrap;html=1;verticalAlign=top;labelBackgroundColor=none;fillColor=#FAE5C7;strokeColor=#0F8B8D;fontColor=#143642;" vertex="1" parent="WZVzZGF7R0zL9x7gL25s-12">
          <mxGeometry x="363.75" y="190" width="167.5" height="60" as="geometry" />
        </mxCell>
        <mxCell id="WZVzZGF7R0zL9x7gL25s-48" value="Указание успеваемости по заданиям, проверенным вне платформы" style="ellipse;whiteSpace=wrap;html=1;verticalAlign=top;labelBackgroundColor=none;fillColor=#FAE5C7;strokeColor=#0F8B8D;fontColor=#143642;" vertex="1" parent="WZVzZGF7R0zL9x7gL25s-12">
          <mxGeometry x="349.38" y="270" width="196.25" height="50" as="geometry" />
        </mxCell>
        <mxCell id="WZVzZGF7R0zL9x7gL25s-51" value="Мониторинг успеваемости клиентов: просмотр статистики и отчетов о прогрессе клиентов&amp;nbsp;" style="ellipse;whiteSpace=wrap;html=1;verticalAlign=top;labelBackgroundColor=none;fillColor=#FAE5C7;strokeColor=#0F8B8D;fontColor=#143642;" vertex="1" parent="WZVzZGF7R0zL9x7gL25s-12">
          <mxGeometry x="352.5" y="330" width="190" height="60" as="geometry" />
        </mxCell>
        <mxCell id="WZVzZGF7R0zL9x7gL25s-53" value="Управление данными о пользователях" style="ellipse;whiteSpace=wrap;html=1;verticalAlign=top;labelBackgroundColor=none;fillColor=#FAE5C7;strokeColor=#0F8B8D;fontColor=#143642;" vertex="1" parent="WZVzZGF7R0zL9x7gL25s-12">
          <mxGeometry x="387.51" y="460" width="120" height="60" as="geometry" />
        </mxCell>
        <mxCell id="WZVzZGF7R0zL9x7gL25s-57" value="Мониторинг активности на платформе" style="ellipse;whiteSpace=wrap;html=1;verticalAlign=top;labelBackgroundColor=none;fillColor=#FAE5C7;strokeColor=#0F8B8D;fontColor=#143642;" vertex="1" parent="WZVzZGF7R0zL9x7gL25s-12">
          <mxGeometry x="393.75" y="534.5" width="107.5" height="60" as="geometry" />
        </mxCell>
        <mxCell id="WZVzZGF7R0zL9x7gL25s-59" value="Решение конфликтов" style="ellipse;whiteSpace=wrap;html=1;verticalAlign=top;labelBackgroundColor=none;fillColor=#FAE5C7;strokeColor=#0F8B8D;fontColor=#143642;" vertex="1" parent="WZVzZGF7R0zL9x7gL25s-12">
          <mxGeometry x="407.5" y="605" width="80" height="45" as="geometry" />
        </mxCell>
        <mxCell id="WZVzZGF7R0zL9x7gL25s-61" value="Техподдержка" style="ellipse;whiteSpace=wrap;html=1;verticalAlign=top;labelBackgroundColor=none;fillColor=#FAE5C7;strokeColor=#0F8B8D;fontColor=#143642;" vertex="1" parent="WZVzZGF7R0zL9x7gL25s-12">
          <mxGeometry x="377.51" y="660" width="140" height="30" as="geometry" />
        </mxCell>
        <mxCell id="WZVzZGF7R0zL9x7gL25s-63" value="Оплата обучения посредством интегрированной платежной системы" style="ellipse;whiteSpace=wrap;html=1;verticalAlign=top;labelBackgroundColor=none;fillColor=#FAE5C7;strokeColor=#0F8B8D;fontColor=#143642;" vertex="1" parent="WZVzZGF7R0zL9x7gL25s-12">
          <mxGeometry x="112.5" y="690" width="165" height="80" as="geometry" />
        </mxCell>
        <mxCell id="WZVzZGF7R0zL9x7gL25s-65" value="Управление финансовыми операциями посредством интегрированной платежной системы&amp;nbsp;" style="ellipse;whiteSpace=wrap;html=1;verticalAlign=top;labelBackgroundColor=none;fillColor=#FAE5C7;strokeColor=#0F8B8D;fontColor=#143642;" vertex="1" parent="WZVzZGF7R0zL9x7gL25s-12">
          <mxGeometry x="337.51" y="700" width="220" height="70" as="geometry" />
        </mxCell>
      </root>
    </mxGraphModel>
  </diagram>
</mxfile>
